<svg xmlns="http://www.w3.org/2000/svg" version="1.1" xmlns:xlink="http://www.w3.org/1999/xlink" xmlns:svgjs="http://svgjs.dev/svgjs" width="1500" height="1500" viewBox="0 0 1500 1500"><rect width="1500" height="1500" fill="#ffffff"></rect><g transform="matrix(0.6666666666666666,0,0,0.6666666666666666,249.78425655976673,249.78425655976673)"><svg viewBox="0 0 343 343" data-background-color="#331e6d" preserveAspectRatio="xMidYMid meet" height="1500" width="1500" xmlns="http://www.w3.org/2000/svg" xmlns:xlink="http://www.w3.org/1999/xlink"><g id="tight-bounds" transform="matrix(1,0,0,1,0.07400000000001228,0.07400000000001228)"><svg viewBox="0 0 342.8515585177538 342.8515585177538" height="342.8515585177538" width="342.8515585177538"><g><svg></svg></g><g><svg viewBox="0 0 342.8515585177538 342.8515585177538" height="342.8515585177538" width="342.8515585177538"><g><path d="M0 171.426c0-94.676 76.75-171.426 171.426-171.426 94.676 0 171.426 76.75 171.426 171.426 0 94.676-76.75 171.426-171.426 171.426-94.676 0-171.426-76.75-171.426-171.426zM171.426 340.985c93.645 0 169.559-75.914 169.559-169.559 0-93.645-75.914-169.559-169.559-169.559-93.645 0-169.559 75.914-169.559 169.559 0 93.645 75.914 169.559 169.559 169.559z" data-fill-palette-color="tertiary" fill="#000000" stroke="transparent"></path><ellipse rx="164.56874808852183" ry="164.56874808852183" cx="171.4257792588769" cy="171.4257792588769" fill="#000000" stroke="transparent" stroke-width="0" fill-opacity="1" data-fill-palette-color="tertiary"></ellipse></g><g transform="matrix(1,0,0,1,64.84655864529836,123.27780015570625)"><svg viewBox="0 0 213.15844122715708 96.29595820634133" height="96.29595820634133" width="213.15844122715708"><g><svg viewBox="0 0 213.15844122715708 96.29595820634133" height="96.29595820634133" width="213.15844122715708"><g><svg viewBox="0 0 213.15844122715708 96.29595820634133" height="96.29595820634133" width="213.15844122715708"><g transform="matrix(1,0,0,1,0,57.92076220261983)"><svg viewBox="0 0 213.15844122715708 38.3751960037215" height="38.3751960037215" width="213.15844122715708"><g id="textblocktransform"><svg viewBox="0 0 213.15844122715708 38.3751960037215" height="38.3751960037215" width="213.15844122715708" id="textblock"><g><svg viewBox="0 0 213.15844122715708 20.697747019928794" height="20.697747019928794" width="213.15844122715708"><g transform="matrix(1,0,0,1,0,0)"><svg width="213.15844122715708" viewBox="2.6 -36 375.87 36.5" height="20.697747019928794" data-palette-color="#331e6d"><path d="M15.7-34.8Q21.35-34.8 24.58-32.3 27.8-29.8 27.8-25.2L27.8-25.2 27.8-24.6 22.9-24.6 22.9-25.35Q22.9-27.75 20.95-29.05 19-30.35 15.8-30.35L15.8-30.35Q12.25-30.35 10.28-29.18 8.3-28 8.3-25.8L8.3-25.8Q8.3-24.15 9.43-23.1 10.55-22.05 12.23-21.45 13.9-20.85 16.85-20.1L16.85-20.1Q20.65-19.1 23-18.15 25.35-17.2 27.03-15.3 28.7-13.4 28.7-10.25L28.7-10.25Q28.7-4.65 25.28-2.08 21.85 0.5 15.65 0.5L15.65 0.5Q9.45 0.5 6.03-2.13 2.6-4.75 2.6-9.75L2.6-9.75 2.65-10.75 7.55-10.75 7.5-9.7Q7.5-6.8 9.68-5.38 11.85-3.95 15.7-3.95L15.7-3.95Q19.45-3.95 21.63-5.33 23.8-6.7 23.8-9.1L23.8-9.1Q23.8-11 22.63-12.18 21.45-13.35 19.68-14 17.9-14.65 14.85-15.45L14.85-15.45Q11.1-16.45 8.85-17.35 6.6-18.25 5-20.13 3.4-22 3.4-25.05L3.4-25.05Q3.4-30 6.75-32.4 10.1-34.8 15.7-34.8L15.7-34.8ZM40.2-36L40.2-22.35Q43.35-26.05 48.1-26.05L48.1-26.05Q52.3-26.05 54.7-23.8 57.1-21.55 57.1-17.2L57.1-17.2 57.1 0 52.4 0 52.4-16.35Q52.4-22.3 47-22.3L47-22.3Q45.2-22.3 43.65-21.35 42.1-20.4 41.15-18.78 40.2-17.15 40.2-15.2L40.2-15.2 40.2 0 35.5 0 35.5-36 40.2-36ZM75.34-26.05Q80.7-26.05 83.9-22.75 87.09-19.45 87.09-13.7L87.09-13.7 87.09-11.85Q87.09-6.1 83.95-2.8 80.8 0.5 75.34 0.5L75.34 0.5Q69.9 0.5 66.75-2.8 63.6-6.1 63.6-11.85L63.6-11.85 63.6-13.7Q63.6-19.45 66.8-22.75 70-26.05 75.34-26.05L75.34-26.05ZM75.34-22.3Q72-22.3 70.15-20 68.3-17.7 68.3-13.25L68.3-13.25 68.3-12.3Q68.3-7.95 70.12-5.6 71.95-3.25 75.34-3.25L75.34-3.25Q78.65-3.25 80.52-5.58 82.4-7.9 82.4-12.3L82.4-12.3 82.4-13.25Q82.4-17.6 80.57-19.95 78.75-22.3 75.34-22.3L75.34-22.3ZM104.09-26.05Q107.24-26.05 109.67-24.73 112.09-23.4 113.44-20.95 114.79-18.5 114.79-15.25L114.79-15.25 114.79-11.7 96.94-11.7Q97.04-7.65 98.84-5.45 100.64-3.25 104.19-3.25L104.19-3.25Q107.34-3.25 108.84-5.1 110.34-6.95 110.34-9.5L110.34-9.5 114.79-9.5Q114.79-6.5 113.42-4.25 112.04-2 109.62-0.75 107.19 0.5 104.09 0.5L104.09 0.5 103.89 0.5Q98.49 0.5 95.37-2.98 92.24-6.45 92.24-12.25L92.24-12.25 92.24-13.25Q92.24-17.05 93.64-19.95 95.04-22.85 97.64-24.45 100.24-26.05 103.74-26.05L103.74-26.05 104.09-26.05ZM103.84-22.3Q100.99-22.3 99.22-20.55 97.44-18.8 97.04-15.35L97.04-15.35 110.14-15.35 110.14-15.95Q110.14-18.8 108.42-20.55 106.69-22.3 103.84-22.3L103.84-22.3ZM131.39-26.05Q134.24-26.05 136.47-25.15 138.69-24.25 139.92-22.65 141.14-21.05 141.14-19.1L141.14-19.1 141.09-18.2 136.44-18.2 136.44-18.65Q136.44-22.3 130.79-22.3L130.79-22.3Q125.19-22.3 125.19-18.95L125.19-18.95Q125.19-17.4 126.79-16.68 128.39-15.95 131.69-15.3L131.69-15.3Q134.84-14.65 136.87-13.95 138.89-13.25 140.31-11.75 141.74-10.25 141.74-7.7L141.74-7.7Q141.74-3.6 138.94-1.55 136.14 0.5 130.89 0.5L130.89 0.5 130.14 0.5Q126.99 0.5 124.64-0.48 122.29-1.45 121.02-3.13 119.74-4.8 119.79-6.9L119.79-6.9 119.79-8 124.44-8 124.44-7.5Q124.44-3.25 131.59-3.25L131.59-3.25Q133.69-3.25 135.37-4.2 137.04-5.15 137.04-6.8L137.04-6.8Q137.04-8.2 136.12-9 135.19-9.8 133.84-10.2 132.49-10.6 130.09-11L130.09-11Q126.99-11.6 125.09-12.23 123.19-12.85 121.84-14.35 120.49-15.85 120.49-18.45L120.49-18.45Q120.49-22 123.29-24.03 126.09-26.05 130.94-26.05L130.94-26.05 131.39-26.05ZM160.98-34.3L182.58-34.3 181.94-29.85 165.88-29.85 165.88-19.4 179.88-19.4 179.88-14.95 165.88-14.95 165.88 0 160.98 0 160.98-34.3ZM197.53-26.05Q202.88-26.05 206.08-22.75 209.28-19.45 209.28-13.7L209.28-13.7 209.28-11.85Q209.28-6.1 206.13-2.8 202.98 0.5 197.53 0.5L197.53 0.5Q192.08 0.5 188.93-2.8 185.78-6.1 185.78-11.85L185.78-11.85 185.78-13.7Q185.78-19.45 188.98-22.75 192.18-26.05 197.53-26.05L197.53-26.05ZM197.53-22.3Q194.18-22.3 192.33-20 190.48-17.7 190.48-13.25L190.48-13.25 190.48-12.3Q190.48-7.95 192.31-5.6 194.13-3.25 197.53-3.25L197.53-3.25Q200.83-3.25 202.71-5.58 204.58-7.9 204.58-12.3L204.58-12.3 204.58-13.25Q204.58-17.6 202.76-19.95 200.93-22.3 197.53-22.3L197.53-22.3ZM226.23-26.05Q231.58-26.05 234.78-22.75 237.98-19.45 237.98-13.7L237.98-13.7 237.98-11.85Q237.98-6.1 234.83-2.8 231.68 0.5 226.23 0.5L226.23 0.5Q220.78 0.5 217.63-2.8 214.48-6.1 214.48-11.85L214.48-11.85 214.48-13.7Q214.48-19.45 217.68-22.75 220.88-26.05 226.23-26.05L226.23-26.05ZM226.23-22.3Q222.88-22.3 221.03-20 219.18-17.7 219.18-13.25L219.18-13.25 219.18-12.3Q219.18-7.95 221-5.6 222.83-3.25 226.23-3.25L226.23-3.25Q229.53-3.25 231.41-5.58 233.28-7.9 233.28-12.3L233.28-12.3 233.28-13.25Q233.28-17.6 231.45-19.95 229.63-22.3 226.23-22.3L226.23-22.3ZM250.23-33.7L250.23-25.55 256.18-25.55 256.18-21.8 250.23-21.8 250.23-6.55Q250.23-4.75 250.93-3.95 251.63-3.15 253.08-3.15L253.08-3.15Q254.38-3.15 256.18-3.9L256.18-3.9 256.18-0.4Q254.38 0.5 251.53 0.5L251.53 0.5Q248.58 0.5 247.05-1.25 245.53-3 245.53-6.8L245.53-6.8 245.53-21.8 242.73-21.8 242.73-25.55 245.68-25.55 247.28-33.7 250.23-33.7ZM292.73-25.55L297.32-25.55 288.98 0 284.07 0 278.18-17.85 277.98-17.85 272.18 0 267.27 0 258.88-25.55 263.73-25.55 269.68-6.85 269.88-6.85 275.93-25.55 280.52-25.55 286.48-6.85 286.68-6.85 292.73-25.55ZM312.62-26.05Q315.77-26.05 318.2-24.73 320.62-23.4 321.97-20.95 323.32-18.5 323.32-15.25L323.32-15.25 323.32-11.7 305.47-11.7Q305.57-7.65 307.37-5.45 309.17-3.25 312.72-3.25L312.72-3.25Q315.87-3.25 317.37-5.1 318.87-6.95 318.87-9.5L318.87-9.5 323.32-9.5Q323.32-6.5 321.95-4.25 320.57-2 318.15-0.75 315.72 0.5 312.62 0.5L312.62 0.5 312.42 0.5Q307.02 0.5 303.9-2.98 300.77-6.45 300.77-12.25L300.77-12.25 300.77-13.25Q300.77-17.05 302.17-19.95 303.57-22.85 306.17-24.45 308.77-26.05 312.27-26.05L312.27-26.05 312.62-26.05ZM312.37-22.3Q309.52-22.3 307.75-20.55 305.97-18.8 305.57-15.35L305.57-15.35 318.67-15.35 318.67-15.95Q318.67-18.8 316.95-20.55 315.22-22.3 312.37-22.3L312.37-22.3ZM340.22-26.05Q345.27-26.05 347.75-24.05 350.22-22.05 350.22-18.25L350.22-18.25 350.22-5Q350.22-4.1 350.62-3.68 351.02-3.25 351.62-3.25L351.62-3.25Q352.77-3.25 353.92-3.95L353.92-3.95 353.92-0.5Q352.22 0.5 350.07 0.5L350.07 0.5Q347.92 0.5 346.87-0.73 345.82-1.95 345.72-4.1L345.72-4.1Q342.62 0.5 336.77 0.5L336.77 0.5Q332.57 0.5 330.5-1.33 328.42-3.15 328.42-7.1L328.42-7.1Q328.42-10.2 330.02-11.98 331.62-13.75 335.32-14.55 339.02-15.35 345.52-15.35L345.52-15.35 345.52-17.7Q345.52-20.25 344.02-21.28 342.52-22.3 339.67-22.3L339.67-22.3Q336.97-22.3 335.47-21.25 333.97-20.2 333.97-18.3L333.97-18.3 333.97-17.7 329.37-17.7Q329.27-18.4 329.27-19.35L329.27-19.35Q329.27-21.1 330.67-22.65 332.07-24.2 334.47-25.13 336.87-26.05 339.77-26.05L339.77-26.05 340.22-26.05ZM345.52-11.7Q340.27-11.7 337.6-11.18 334.92-10.65 334.02-9.6 333.12-8.55 333.12-6.7L333.12-6.7Q333.12-3.25 338.37-3.25L338.37-3.25Q340.22-3.25 341.87-4.17 343.52-5.1 344.52-6.8 345.52-8.5 345.52-10.7L345.52-10.7 345.52-11.7ZM370.92-26.05Q374.47-26.05 376.47-23.78 378.47-21.5 378.47-18.05L378.47-18.05 378.32-16.15 374.17-16.15 374.17-17.25Q374.17-18.75 373.42-19.9 372.67-21.05 371.52-21.68 370.37-22.3 369.22-22.3L369.22-22.3Q366.82-22.3 365.47-20.4 364.12-18.5 364.12-15.25L364.12-15.25 364.12 0 359.42 0 359.42-25.55 362.77-25.55 363.47-21.75Q363.77-22.75 364.82-23.75 365.87-24.75 367.44-25.4 369.02-26.05 370.92-26.05L370.92-26.05Z" opacity="1" transform="matrix(1,0,0,1,0,0)" fill="#ffffff" class="wordmark-text-0" data-fill-palette-color="quaternary" id="text-0"></path></svg></g></svg></g><g transform="matrix(1,0,0,1,0,25.583988345405505)"><svg viewBox="0 0 213.15844122715708 12.791207658315995" height="12.791207658315995" width="213.15844122715708"><g transform="matrix(1,0,0,1,0,0)"><svg width="213.15844122715708" viewBox="2.1 -32.3 545.76 32.75" height="12.791207658315995" data-palette-color="#331e6d"><path d="M13.35-32.3Q16.8-32.3 20.5-30.8L20.5-30.8 19.85-26.95 19.15-26.75Q17.7-27.85 16.07-28.45 14.45-29.05 12.85-29.05L12.85-29.05Q11-29.05 9.63-28.3 8.25-27.55 7.53-26.35 6.8-25.15 6.8-23.85L6.8-23.85Q6.8-22.5 7.63-21.48 8.45-20.45 9.7-19.7 10.95-18.95 13.1-17.9L13.1-17.9Q15.8-16.65 17.45-15.58 19.1-14.5 20.28-12.85 21.45-11.2 21.45-8.85L21.45-8.85Q21.45-6.35 20.1-4.25 18.75-2.15 16.3-0.9 13.85 0.35 10.7 0.35L10.7 0.35Q8.6 0.35 6.33-0.23 4.05-0.8 2.1-1.9L2.1-1.9 2.6-6 3.15-6.25Q4.9-4.55 7.03-3.73 9.15-2.9 11.1-2.9L11.1-2.9Q13-2.9 14.48-3.65 15.95-4.4 16.73-5.65 17.5-6.9 17.5-8.3L17.5-8.3Q17.5-10.4 15.9-11.68 14.3-12.95 11.05-14.45L11.05-14.45Q8.4-15.75 6.8-16.78 5.2-17.8 4.05-19.43 2.9-21.05 2.9-23.4L2.9-23.4Q2.9-25.85 4.23-27.9 5.55-29.95 7.93-31.13 10.3-32.3 13.35-32.3L13.35-32.3ZM66.5-25L66.35-7.45 66.4 0 62.4 0 49.3-19 49.05-19 49-8.3 49.1 0 45.7 0 45.85-7.35 45.75-24.9 49.7-24.9 62.8-5.9 63.15-5.9 63.05-24.75 66.5-25ZM101.66-3L108.31-3.2 108.61-2.9 108.26 0 93.11 0 93.26-7.5 93.11-24.9 108.36-24.9 108.61-24.6 108.31-21.7 102.01-21.9 96.81-21.85 96.76-14.3 101.71-14.25 106.06-14.4 106.31-14.05 106.01-11.1 101.41-11.25 96.76-11.2 96.71-7.8 96.76-3.05 101.66-3ZM143.11-24.9L151.86 0 148.11 0 147.51-2.7 146.21-6.4 140.26-6.45 134.96-6.4 133.61-2.9 132.91 0 129.21 0 138.81-24.9 143.11-24.9ZM140.56-9.4L145.16-9.45 141.01-21.25 140.71-21.25 136.16-9.45 140.56-9.4ZM194.37-24.95L183.77-13.25Q189.07-6.75 195.02-0.85L195.02-0.85 194.92-0.3Q193.37 0.2 191.32 0.45L191.32 0.45 190.72 0.2Q184.32-7 179.67-13L179.67-13 179.67-13.3 188.27-22.7 189.92-24.9 194.37-24.95ZM179.42-24.9L179.27-7.8 179.37 0 175.67 0 175.82-7.5 175.67-24.9 179.42-24.9ZM226.32-3L232.97-3.2 233.27-2.9 232.92 0 217.77 0 217.92-7.5 217.77-24.9 233.02-24.9 233.27-24.6 232.97-21.7 226.67-21.9 221.47-21.85 221.42-14.3 226.37-14.25 230.72-14.4 230.97-14.05 230.67-11.1 226.07-11.25 221.42-11.2 221.37-7.8 221.42-3.05 226.32-3ZM268.58-10.05Q271.63-5.4 275.33-0.9L275.33-0.9 275.28-0.4Q273.18 0.25 271.83 0.35L271.83 0.35 271.18-0.05Q267.38-5.8 265.43-9.1L265.43-9.1 260.73-9.05 260.73-7.8 260.83 0 257.13 0 257.28-7.5 257.13-24.9 265.63-24.95Q269.58-24.95 271.7-23.1 273.83-21.25 273.83-17.75L273.83-17.75Q273.83-15.2 272.45-13.2 271.08-11.2 268.58-10.05L268.58-10.05ZM260.83-21.9L260.78-12.15 265.48-12Q269.93-13.25 269.93-17.45L269.93-17.45Q269.93-19.65 268.63-20.75 267.33-21.85 264.68-21.95L264.68-21.95 260.83-21.9ZM306.88-25.15Q309.93-25.15 312.98-23.95L312.98-23.95 312.33-20.25 311.73-20.1Q310.33-21.2 309.08-21.73 307.83-22.25 306.48-22.25L306.48-22.25Q304.33-22.25 303.08-21.13 301.83-20 301.83-18.55L301.83-18.55Q301.83-17.1 303.06-16.2 304.28-15.3 306.83-14.2L306.83-14.2Q309.08-13.2 310.41-12.4 311.73-11.6 312.71-10.28 313.68-8.95 313.68-7.05L313.68-7.05Q313.68-5.1 312.63-3.43 311.58-1.75 309.56-0.73 307.53 0.3 304.73 0.3L304.73 0.3Q302.98 0.3 301.06-0.13 299.13-0.55 297.48-1.4L297.48-1.4 297.93-5.35 298.43-5.55Q299.83-4.15 301.71-3.38 303.58-2.6 305.18-2.6L305.18-2.6Q307.28-2.6 308.63-3.73 309.98-4.85 309.98-6.45L309.98-6.45Q309.98-7.95 308.76-8.85 307.53-9.75 304.93-10.95L304.93-10.95Q302.78-11.9 301.41-12.7 300.03-13.5 299.08-14.83 298.13-16.15 298.13-18.05L298.13-18.05Q298.13-20.05 299.21-21.65 300.28-23.25 302.26-24.2 304.23-25.15 306.88-25.15L306.88-25.15ZM374.04-28.7L368.44-28.6 368.34-17.45 373.74-17.35 378.94-17.5 379.24-17.1 378.89-14.05 373.34-14.2 368.29-14.15 368.24-10 368.44 0 364.39 0 364.64-9.65 364.39-32.05 381.44-32.05 381.74-31.65 381.39-28.45 374.04-28.7ZM415-10.05Q418.05-5.4 421.75-0.9L421.75-0.9 421.7-0.4Q419.6 0.25 418.25 0.35L418.25 0.35 417.6-0.05Q413.8-5.8 411.85-9.1L411.85-9.1 407.15-9.05 407.15-7.8 407.25 0 403.55 0 403.7-7.5 403.55-24.9 412.05-24.95Q416-24.95 418.12-23.1 420.25-21.25 420.25-17.75L420.25-17.75Q420.25-15.2 418.87-13.2 417.5-11.2 415-10.05L415-10.05ZM407.25-21.9L407.2-12.15 411.9-12Q416.35-13.25 416.35-17.45L416.35-17.45Q416.35-19.65 415.05-20.75 413.75-21.85 411.1-21.95L411.1-21.95 407.25-21.9ZM454.5-3L461.15-3.2 461.45-2.9 461.1 0 445.95 0 446.1-7.5 445.95-24.9 461.2-24.9 461.45-24.6 461.15-21.7 454.85-21.9 449.65-21.85 449.6-14.3 454.55-14.25 458.9-14.4 459.15-14.05 458.85-11.1 454.25-11.25 449.6-11.2 449.55-7.8 449.6-3.05 454.5-3ZM495.96-24.9L504.71 0 500.96 0 500.36-2.7 499.06-6.4 493.11-6.45 487.81-6.4 486.46-2.9 485.76 0 482.06 0 491.66-24.9 495.96-24.9ZM493.41-9.4L498.01-9.45 493.86-21.25 493.56-21.25 489.01-9.45 493.41-9.4ZM547.21-24.95L536.61-13.25Q541.91-6.75 547.86-0.85L547.86-0.85 547.76-0.3Q546.21 0.2 544.16 0.45L544.16 0.45 543.56 0.2Q537.16-7 532.51-13L532.51-13 532.51-13.3 541.11-22.7 542.76-24.9 547.21-24.95ZM532.26-24.9L532.11-7.8 532.21 0 528.51 0 528.66-7.5 528.51-24.9 532.26-24.9Z" opacity="1" transform="matrix(1,0,0,1,0,0)" fill="#ffffff" class="slogan-text-1" data-fill-palette-color="quaternary" id="text-1"></path></svg></g></svg></g></svg></g></svg></g><g transform="matrix(1,0,0,1,47.45488249547437,0)"><svg viewBox="0 0 118.24867623620834 53.034520877143116" height="53.034520877143116" width="118.24867623620834"><g><svg xmlns="http://www.w3.org/2000/svg" xmlns:xlink="http://www.w3.org/1999/xlink" version="1.1" x="0" y="0" viewBox="8.392014231750874 73.01436543005744 269.2835190349813 120.7736345699426" enable-background="new 0 0 283.46 283.46" xml:space="preserve" height="53.034520877143116" width="118.24867623620834" class="icon-icon-0" data-fill-palette-color="quaternary" id="icon-0"><path fill="#ffffff" d="M277.474 155.815c-0.016-0.187-0.027-0.373-0.044-0.56-0.095-1.11-0.747-2.037-1.658-2.535-1.58-7.743-5.858-13.479-12.562-16.711-12.53-6.041-29.877-7.331-40.238-8.104-1.176-0.086-2.293-0.17-3.299-0.252l-0.006-0.239c-0.062-1.764-1.545-3.143-3.304-3.085-1.452 0.049-2.643 1.059-2.985 2.399-2.401-0.521-4.844-1.153-7.319-1.888l-0.028-0.834c-0.059-1.764-1.553-3.144-3.303-3.087-1.268 0.043-2.331 0.819-2.812 1.906-2.457-0.885-4.949-1.875-7.468-2.961l-0.051-2.632c-0.036-1.765-1.483-3.162-3.26-3.131-1.613 0.032-2.919 1.254-3.106 2.811-2.283-1.117-4.59-2.312-6.912-3.584l-0.074-4.606c-0.028-1.764-1.474-3.165-3.248-3.144-1.766 0.028-3.172 1.482-3.144 3.246l0.009 0.584c-2.078-1.375-4.332-2.945-6.66-4.622l-0.09-5.764c-0.027-1.764-1.488-3.171-3.246-3.146-1.766 0.027-3.174 1.481-3.146 3.246l0.008 0.59c-0.005 0.086-0.01 0.174-0.008 0.263v0.039c-2.271-1.707-4.526-3.432-6.681-5.102l-0.074-5.923c-0.021-1.765-1.475-3.178-3.236-3.155-1.766 0.023-3.177 1.472-3.154 3.236l0.008 0.782c-5.208-4.128-8.854-7.124-8.953-7.207-0.681-0.56-1.562-0.813-2.438-0.702-0.875 0.113-1.664 0.582-2.181 1.295-12.545 17.325-39.87 26.318-60.579 26.318-0.147 0-0.299 0-0.445-0.001-15.028-0.095-28.063-2.291-38.293-6.406 1.126-3.335 6.49-20.191 2.271-26.917-1.133-1.806-2.83-2.898-4.906-3.157-2.099-0.263-4.023 0.333-5.57 1.721-4.367 3.918-4.586 13.148-4.438 22.268 0.018 1.154 0.04 2.458 0.004 2.874-0.042 0.213-0.062 0.425-0.062 0.633-2.619 3.604-14.218 21.243-12.157 48.499 0.399 5.286 1.356 11.271 2.84 17.815-0.151 0.353-0.243 0.736-0.257 1.144-0.005 0.171 0.006 0.339 0.026 0.502-0.609 1.511-0.913 2.886-0.913 4.162 0 9.796 5.41 15.413 14.843 15.413 5.242 0 52.759 1.727 94.681 3.252 35.844 1.303 66.799 2.43 69.807 2.43 0.363 0 36.844-0.254 58.887-9.33 8.437-3.476 19.138-8.647 27.09-17.91 0.335-0.389 0.663-0.789 0.984-1.19 0.515-0.537 0.847-1.251 0.883-2.052 0.037-0.78 0.07-1.363 0.096-1.831C277.72 159.384 277.708 159.25 277.474 155.815zM135.899 89.647c2.359 1.914 6.156 4.965 10.574 8.419l0.065 5.298c0.023 1.751 1.449 3.155 3.196 3.155 0.015 0 0.027 0 0.041 0 1.767-0.023 3.179-1.472 3.155-3.237l-0.003-0.23c2.212 1.684 4.476 3.382 6.715 5.024l0.042 2.643c0.027 1.747 1.452 3.145 3.195 3.145 0.016 0 0.033 0 0.051 0 1.135-0.018 2.117-0.626 2.671-1.525 2.583 1.796 5.024 3.414 7.183 4.729l0.033 2.076c0.027 1.747 1.453 3.144 3.194 3.144 0.019 0 0.034 0 0.053 0 1.256-0.022 2.327-0.763 2.832-1.825 2.427 1.272 4.837 2.464 7.224 3.572l0.051 2.508c0.035 1.741 1.459 3.131 3.193 3.131 0.021 0 0.043 0 0.064-0.001 1.623-0.032 2.935-1.268 3.109-2.837 2.44 0.996 4.861 1.9 7.254 2.715l0.015 0.444c0.062 1.728 1.479 3.087 3.194 3.087 0.035 0 0.07 0 0.108-0.001 1.168-0.039 2.167-0.704 2.69-1.659 2.623 0.739 5.209 1.36 7.759 1.87 0.373 1.359 1.616 2.349 3.077 2.349 0.035 0 0.072-0.001 0.107-0.002 1.143-0.039 2.121-0.674 2.654-1.592 0.952 0.078 1.98 0.154 3.098 0.237 2.379 0.176 5.147 0.385 8.135 0.67-2.996 1.493-6.945 2.337-11.736 2.474-8.992 0.256-20.281-2.042-32.666-6.648-17.05-6.342-37.84-20.634-54.546-32.12-0.995-0.684-1.977-1.358-2.944-2.022C131.44 94.41 133.847 92.067 135.899 89.647zM141.905 176.734l-11.332-1.865c-0.512-0.087-1.023-0.173-1.533-0.258-3.765-0.631-7.557-1.264-11.34-1.881l40.26-49.129c2.079 1.253 4.158 2.473 6.229 3.644l11.435 5.964c0.474 0.223 0.943 0.437 1.414 0.652L141.905 176.734zM29.556 79.554c0.133-0.118 0.209-0.172 0.509-0.136 0.132 0.017 0.164 0.02 0.283 0.212 1.693 2.697-0.056 12.735-2.689 20.803-0.141-0.077-0.279-0.154-0.418-0.23 0.038-0.698 0.025-1.667 0-3.242C27.18 93.226 26.994 81.853 29.556 79.554zM24.759 106.131c11.814 6.313 27.971 9.697 46.986 9.816 13.578 0.077 27.31-2.899 39.727-8.628 4.261-1.966 8.239-4.207 11.852-6.646 1.541 1.056 3.122 2.142 4.738 3.253 4.104 2.821 8.457 5.812 12.941 8.814l-46.382 56.598c-4.295-0.527-8.462-0.967-12.398-1.253-1.278-0.092-2.629-0.187-4.036-0.276-0.371-18.824-5.215-40.481-38.471-51.95-5.302-1.828-10.896-4.621-16.184-7.677C23.98 107.394 24.396 106.708 24.759 106.131zM18.373 119.958c5.563 3.142 11.459 6.017 17.176 7.988 25.21 8.693 29.444 23.084 29.853 39.124-9.959-0.521-21.225-1.006-32.035-1.428-2.552-3.088-11.175-13.911-16.448-25.313-0.371-0.803-0.939-2.504-1.514-6.055-0.027-0.165-0.053-0.324-0.079-0.479C15.971 128.435 17.124 123.782 18.373 119.958zM24.954 165.32c-2.51-0.092-4.963-0.182-7.343-0.266-1.155-5.159-1.959-9.926-2.4-14.225C18.555 156.591 22.207 161.716 24.954 165.32zM120.088 184.971c-41.978-1.527-89.555-3.257-94.914-3.257-5.923 0-8.451-2.698-8.451-9.021 0-0.199 0.039-0.605 0.26-1.265 21.118 0.745 48.536 1.852 64.778 3.032 13.674 0.994 30.22 3.77 46.221 6.453 12.725 2.133 25.716 4.312 37.77 5.705C153.126 186.173 136.835 185.582 120.088 184.971zM186.853 181.714c-4.208-0.041-8.729-0.305-13.463-0.731l-8.324-0.96 32.158-39.241 3.791 1.068c5.961 1.31 11.525 1.987 16.527 1.987 0.518 0 1.029-0.008 1.535-0.021 7.479-0.215 13.488-1.988 17.707-5.181 7.728 1.284 13.883 3.058 18.752 5.406 2.965 1.429 5.274 3.521 6.859 6.216 1.533 2.604 2.443 5.831 2.705 9.627 0.09 1.297 0.141 2.053 0.165 2.616C252.843 175.48 226.082 182.085 186.853 181.714z" data-fill-palette-color="quaternary"></path></svg></g></svg></g><g></g></svg></g></svg></g></svg></g></svg></g><defs></defs></svg><rect width="342.8515585177538" height="342.8515585177538" fill="none" stroke="none" visibility="hidden"></rect></g></svg></g></svg>